<?xml version="1.0" encoding="UTF-8" standalone="no"?>
<!-- Created with Inkscape (http://www.inkscape.org/) -->

<svg
   width="1133.8583"
   height="1133.8583"
   viewBox="0 0 300 300.00001"
   version="1.1"
   id="svg1"
   xml:space="preserve"
   xmlns="http://www.w3.org/2000/svg"
   xmlns:svg="http://www.w3.org/2000/svg"><defs
     id="defs1" /><g
     id="layer1"
     transform="translate(-423.22335,-7.0306906)"><g
       id="use4"
       transform="translate(372.21232,-0.827749)"><path
         style="font-size:163.162px;line-height:1;font-family:'Libertinus Mono';-inkscape-font-specification:'Libertinus Mono';text-align:center;text-anchor:middle;fill:#075985;stroke-width:2.89068;stroke-linecap:round;stroke-linejoin:round"
         d="m 206.00785,45.457083 c -26.43224,0 -52.86449,14.195094 -52.86449,54.332947 0,29.36916 19.57944,49.27492 50.58023,49.27492 17.29517,0 30.18497,-4.24221 38.50623,-11.42134 -1.63162,-1.46845 -2.44743,-2.61059 -2.44743,-4.24221 v -17.45833 c 0,-5.38435 4.24221,-6.85281 8.48442,-7.34229 0.81581,-0.97897 0.81581,-4.89486 0,-5.87383 -4.40537,0.16316 -9.46339,0.32632 -15.33723,0.32632 -5.71067,0 -16.3162,-0.16316 -23.169,-0.32632 -0.81581,0.97897 -0.81581,4.89486 0,5.87383 7.99494,0.65265 14.68458,1.14213 14.68458,7.34229 v 22.84268 c -4.40537,2.93691 -9.30023,4.07905 -17.29517,4.07905 -26.59541,0 -38.17991,-20.88474 -38.17991,-46.174848 0,-30.674457 16.15304,-45.522199 35.07983,-45.522199 21.21106,0 26.10592,12.073988 29.85865,25.453272 1.95794,0.163162 4.07905,0 5.71067,-0.978972 -1.3053,-6.52648 -2.12111,-14.358256 -3.10008,-25.453272 -8.81075,0 -12.56348,-4.731698 -30.5113,-4.731698 z"
         id="path26"
         aria-label="G" /><path
         style="color:#000000;fill:#075985;stroke-width:2.73058;stroke-linecap:square;stroke-linejoin:round;-inkscape-stroke:none"
         d="M 128.91511,83.780836 C 110.34119,88.566501 74.177721,100.699 72.589674,122.90635 c -2.189561,30.61898 61.838146,47.42967 125.148846,46.99988 62.65281,-0.42533 129.16351,-17.8199 131.67426,-47.9209 1.90994,-22.896178 -33.55302,-34.772083 -51.01318,-39.210946 l 0.22281,3.582378 c 15.52036,2.044149 52.56888,18.035788 46.76961,35.935238 -6.13676,18.94126 -66.8934,37.36652 -127.72029,37.77946 -65.49899,0.44463 -123.190151,-18.07231 -121.840321,-36.94841 1.24155,-17.36157 21.315563,-27.250893 53.242851,-36.081622 z"
         id="path27" /><g
         id="g28"
         transform="matrix(2.1979024,0,0,2.1979024,22.883981,11.12075)"><circle
           style="fill:#059669;fill-opacity:1;stroke:none;stroke-width:4.09242;stroke-linecap:square;stroke-linejoin:round;stroke-dasharray:none"
           id="circle27"
           cx="39.480614"
           cy="63.801273"
           r="6.4008355" /><path
           style="font-size:10.5833px;line-height:1;font-family:'Libertinus Sans';-inkscape-font-specification:'Libertinus Sans';text-align:center;text-anchor:middle;fill:#ecfdf5;stroke-width:2.3828;stroke-linecap:square;stroke-linejoin:round"
           d="m 41.269191,64.970725 c -0.370415,0.402165 -0.86783,0.582082 -1.449912,0.582082 -0.359832,0 -0.857247,-0.137583 -1.153579,-0.603249 -0.1905,-0.296332 -0.254,-0.730247 -0.254,-1.344079 h 2.878658 c 0.116416,0 0.190499,-0.0635 0.190499,-0.179916 0,-0.888997 -0.433915,-2.000243 -1.83091,-2.000243 -1.09008,0 -2.169577,0.878414 -2.169577,2.434159 0,0.603248 0.127,1.195912 0.476249,1.619244 0.359832,0.433916 0.973663,0.698498 1.682744,0.698498 0.761998,0 1.439329,-0.391582 1.841494,-0.941913 z M 38.44345,63.182147 c 0.179916,-1.100663 0.878414,-1.333495 1.206497,-1.333495 0.423332,0 0.888997,0.391582 0.888997,1.185329 0,0.09525 -0.04233,0.148166 -0.148166,0.148166 z"
           id="path28"
           aria-label="e" /></g><g
         id="g29"
         transform="matrix(2.7305827,0,0,2.7305827,134.44184,-10.039391)"><circle
           style="fill:#059669;fill-opacity:1;stroke:none;stroke-width:4.09242;stroke-linecap:square;stroke-linejoin:round;stroke-dasharray:none"
           id="circle28"
           cx="39.480614"
           cy="63.801273"
           r="6.4008355" /><path
           style="font-size:10.5833px;line-height:1;font-family:'Libertinus Sans';-inkscape-font-specification:'Libertinus Sans';text-align:center;text-anchor:middle;fill:#ecfdf5;stroke-width:2.3828;stroke-linecap:square;stroke-linejoin:round"
           d="m 41.269191,64.970725 c -0.370415,0.402165 -0.86783,0.582082 -1.449912,0.582082 -0.359832,0 -0.857247,-0.137583 -1.153579,-0.603249 -0.1905,-0.296332 -0.254,-0.730247 -0.254,-1.344079 h 2.878658 c 0.116416,0 0.190499,-0.0635 0.190499,-0.179916 0,-0.888997 -0.433915,-2.000243 -1.83091,-2.000243 -1.09008,0 -2.169577,0.878414 -2.169577,2.434159 0,0.603248 0.127,1.195912 0.476249,1.619244 0.359832,0.433916 0.973663,0.698498 1.682744,0.698498 0.761998,0 1.439329,-0.391582 1.841494,-0.941913 z M 38.44345,63.182147 c 0.179916,-1.100663 0.878414,-1.333495 1.206497,-1.333495 0.423332,0 0.888997,0.391582 0.888997,1.185329 0,0.09525 -0.04233,0.148166 -0.148166,0.148166 z"
           id="path29"
           aria-label="e" /></g><g
         id="g30"
         transform="matrix(1.4322921,0,0,1.4322921,259.46464,9.8324336)"><circle
           style="fill:#059669;fill-opacity:1;stroke:none;stroke-width:4.09242;stroke-linecap:square;stroke-linejoin:round;stroke-dasharray:none"
           id="circle29"
           cx="39.480614"
           cy="63.801273"
           r="6.4008355" /><path
           style="font-size:10.5833px;line-height:1;font-family:'Libertinus Sans';-inkscape-font-specification:'Libertinus Sans';text-align:center;text-anchor:middle;fill:#ecfdf5;stroke-width:2.3828;stroke-linecap:square;stroke-linejoin:round"
           d="m 41.269191,64.970725 c -0.370415,0.402165 -0.86783,0.582082 -1.449912,0.582082 -0.359832,0 -0.857247,-0.137583 -1.153579,-0.603249 -0.1905,-0.296332 -0.254,-0.730247 -0.254,-1.344079 h 2.878658 c 0.116416,0 0.190499,-0.0635 0.190499,-0.179916 0,-0.888997 -0.433915,-2.000243 -1.83091,-2.000243 -1.09008,0 -2.169577,0.878414 -2.169577,2.434159 0,0.603248 0.127,1.195912 0.476249,1.619244 0.359832,0.433916 0.973663,0.698498 1.682744,0.698498 0.761998,0 1.439329,-0.391582 1.841494,-0.941913 z M 38.44345,63.182147 c 0.179916,-1.100663 0.878414,-1.333495 1.206497,-1.333495 0.423332,0 0.888997,0.391582 0.888997,1.185329 0,0.09525 -0.04233,0.148166 -0.148166,0.148166 z"
           id="path30"
           aria-label="e" /></g></g><path
       style="font-weight:bold;font-size:70.5556px;line-height:1;font-family:'Libertinus Sans';-inkscape-font-specification:'Libertinus Sans';text-align:center;text-anchor:middle;fill:#075985;stroke-width:3;stroke-linecap:square;stroke-linejoin:round"
       d="m 521.68246,260.4715 v 2.39889 c -2.39889,2.25778 -5.08,2.68111 -8.89,2.68111 -9.59557,0 -14.11112,-10.58334 -14.11112,-19.89668 0,-11.35945 3.03389,-19.40279 12.55889,-19.40279 5.50334,0 11.57112,2.89278 14.4639,8.67834 l 2.11667,-0.0706 c 0.28222,-3.59833 0.56445,-5.715 1.41111,-9.17223 l -0.14111,-0.21166 c 0,0 -8.255,-3.17501 -16.86279,-3.17501 -7.05556,0 -11.64167,1.97556 -16.51001,5.85612 -5.29167,4.16278 -8.39612,10.93612 -8.39612,18.9089 0,7.19667 3.95112,14.18168 10.0189,18.2739 4.23334,2.82223 8.04334,4.09223 13.8289,4.09223 8.255,0 16.22779,-2.32834 20.95501,-6.35001 v -0.21166 c -0.42333,-0.56445 -0.70555,-1.55223 -0.70555,-3.81001 0,-5.29167 0.14111,-8.255 0.70555,-11.99445 l -0.0706,-0.21167 c 0,0 -2.68112,0.21167 -5.15056,0.21167 -2.39889,0 -5.78556,-0.21167 -5.78556,-0.21167 l -0.14111,0.21167 c 0.56444,4.02167 0.70555,8.1139 0.70555,13.40557 z m 32.03227,-5.85612 v -7.83167 c 3.38666,0 11.85334,0.21167 16.72167,0.70555 l 0.21167,-0.21166 c -0.14111,-0.635 -0.21167,-2.04611 -0.21167,-2.68111 0,-0.63501 0.0706,-1.97556 0.21167,-2.61056 l -0.21167,-0.21167 c -4.16278,0.35278 -8.39611,0.70556 -16.72167,0.70556 v -5.15056 c 0,-1.19945 0.0705,-7.62001 0.56444,-9.31334 9.45445,0 20.1789,0.84667 20.1789,0.84667 l 0.14111,-0.28223 c -0.0706,-0.56444 -0.14111,-2.25778 -0.14111,-2.89278 0,-0.56444 0.0706,-1.48166 0.14111,-2.46944 l -0.14111,-0.21167 c -1.12889,0.14111 -2.75167,0.21167 -4.23333,0.21167 h -21.44891 c -2.39889,0 -5.92667,-0.21167 -5.92667,-0.21167 l -0.14111,0.21167 c 0.56445,4.02167 0.84667,8.81945 0.84667,14.11112 v 17.28612 c 0,5.29167 -0.28222,10.30112 -0.84667,14.11112 l 0.0706,0.21167 c 0,0 3.52778,-0.21167 5.99722,-0.21167 h 22.15446 c 1.48167,0 3.10445,0.0706 4.23334,0.21167 l 0.14111,-0.21167 c -0.0706,-0.91722 -0.14111,-1.83444 -0.14111,-2.54 0,-0.70556 0.0706,-3.31611 0.14111,-3.88056 l -0.14111,-0.28222 c 0,0 -11.43001,1.55222 -20.88446,1.55222 -0.49389,-1.69333 -0.56444,-7.76111 -0.56444,-8.96056 z m 41.91001,0 v -7.83167 c 3.38667,0 11.85335,0.21167 16.72168,0.70555 l 0.21167,-0.21166 c -0.14111,-0.635 -0.21167,-2.04611 -0.21167,-2.68111 0,-0.63501 0.0706,-1.97556 0.21167,-2.61056 l -0.21167,-0.21167 c -4.16278,0.35278 -8.39611,0.70556 -16.72168,0.70556 v -5.15056 c 0,-1.19945 0.0706,-7.62001 0.56445,-9.31334 9.45445,0 20.1789,0.84667 20.1789,0.84667 l 0.14111,-0.28223 c -0.0705,-0.56444 -0.14111,-2.25778 -0.14111,-2.89278 0,-0.56444 0.0706,-1.48166 0.14111,-2.46944 l -0.14111,-0.21167 c -1.12889,0.14111 -2.75167,0.21167 -4.23333,0.21167 h -21.44891 c -2.39889,0 -5.92667,-0.21167 -5.92667,-0.21167 l -0.14111,0.21167 c 0.56444,4.02167 0.84667,8.81945 0.84667,14.11112 v 17.28612 c 0,5.29167 -0.28223,10.30112 -0.84667,14.11112 l 0.0706,0.21167 c 0,0 3.52778,-0.21167 5.99722,-0.21167 h 22.15446 c 1.48167,0 3.10445,0.0706 4.23334,0.21167 l 0.14111,-0.21167 c -0.0706,-0.91722 -0.14111,-1.83444 -0.14111,-2.54 0,-0.70556 0.0705,-3.31611 0.14111,-3.88056 l -0.14111,-0.28222 c 0,0 -11.43001,1.55222 -20.88446,1.55222 -0.49389,-1.69333 -0.56445,-7.76111 -0.56445,-8.96056 z m 41.91002,0 v -7.83167 c 3.38667,0 11.85334,0.21167 16.72168,0.70555 l 0.21167,-0.21166 c -0.14111,-0.635 -0.21167,-2.04611 -0.21167,-2.68111 0,-0.63501 0.0706,-1.97556 0.21167,-2.61056 l -0.21167,-0.21167 c -4.16278,0.35278 -8.39612,0.70556 -16.72168,0.70556 v -5.15056 c 0,-1.19945 0.0706,-7.62001 0.56445,-9.31334 9.45445,0 20.1789,0.84667 20.1789,0.84667 l 0.14111,-0.28223 c -0.0706,-0.56444 -0.14111,-2.25778 -0.14111,-2.89278 0,-0.56444 0.0706,-1.48166 0.14111,-2.46944 l -0.14111,-0.21167 c -1.12889,0.14111 -2.75167,0.21167 -4.23334,0.21167 h -21.4489 c -2.39889,0 -5.92667,-0.21167 -5.92667,-0.21167 l -0.14111,0.21167 c 0.56444,4.02167 0.84667,8.81945 0.84667,14.11112 v 17.28612 c 0,5.29167 -0.28223,10.30112 -0.84667,14.11112 l 0.0706,0.21167 c 0,0 3.52778,-0.21167 5.99723,-0.21167 h 22.15446 c 1.48167,0 3.10445,0.0706 4.23334,0.21167 l 0.14111,-0.21167 c -0.0706,-0.91722 -0.14111,-1.83444 -0.14111,-2.54 0,-0.70556 0.0706,-3.31611 0.14111,-3.88056 l -0.14111,-0.28222 c 0,0 -11.43001,1.55222 -20.88446,1.55222 -0.49389,-1.69333 -0.56445,-7.76111 -0.56445,-8.96056 z"
       id="text4"
       aria-label="GEEE" /></g></svg>
