<?xml version="1.0" encoding="UTF-8" standalone="no"?>
<!-- Created with Inkscape (http://www.inkscape.org/) -->

<svg
   width="755.90552"
   height="755.90552"
   viewBox="0 0 200 200.00001"
   version="1.1"
   id="svg1"
   xml:space="preserve"
   xmlns="http://www.w3.org/2000/svg"
   xmlns:svg="http://www.w3.org/2000/svg"><defs
     id="defs1" /><g
     id="layer1"
     transform="translate(-745.53444,-20.185597)"><g
       id="use5"
       transform="matrix(0.7588703,0,0,0.7588703,692.99312,34.011968)"><path
         style="font-size:163.162px;line-height:1;font-family:'Libertinus Mono';-inkscape-font-specification:'Libertinus Mono';text-align:center;text-anchor:middle;fill:#075985;stroke-width:2.89068;stroke-linecap:round;stroke-linejoin:round"
         d="m 206.00785,45.457083 c -26.43224,0 -52.86449,14.195094 -52.86449,54.332947 0,29.36916 19.57944,49.27492 50.58023,49.27492 17.29517,0 30.18497,-4.24221 38.50623,-11.42134 -1.63162,-1.46845 -2.44743,-2.61059 -2.44743,-4.24221 v -17.45833 c 0,-5.38435 4.24221,-6.85281 8.48442,-7.34229 0.81581,-0.97897 0.81581,-4.89486 0,-5.87383 -4.40537,0.16316 -9.46339,0.32632 -15.33723,0.32632 -5.71067,0 -16.3162,-0.16316 -23.169,-0.32632 -0.81581,0.97897 -0.81581,4.89486 0,5.87383 7.99494,0.65265 14.68458,1.14213 14.68458,7.34229 v 22.84268 c -4.40537,2.93691 -9.30023,4.07905 -17.29517,4.07905 -26.59541,0 -38.17991,-20.88474 -38.17991,-46.174848 0,-30.674457 16.15304,-45.522199 35.07983,-45.522199 21.21106,0 26.10592,12.073988 29.85865,25.453272 1.95794,0.163162 4.07905,0 5.71067,-0.978972 -1.3053,-6.52648 -2.12111,-14.358256 -3.10008,-25.453272 -8.81075,0 -12.56348,-4.731698 -30.5113,-4.731698 z"
         id="path31"
         aria-label="G" /><path
         style="color:#000000;fill:#075985;stroke-width:2.73058;stroke-linecap:square;stroke-linejoin:round;-inkscape-stroke:none"
         d="M 128.91511,83.780836 C 110.34119,88.566501 74.177721,100.699 72.589674,122.90635 c -2.189561,30.61898 61.838146,47.42967 125.148846,46.99988 62.65281,-0.42533 129.16351,-17.8199 131.67426,-47.9209 1.90994,-22.896178 -33.55302,-34.772083 -51.01318,-39.210946 l 0.22281,3.582378 c 15.52036,2.044149 52.56888,18.035788 46.76961,35.935238 -6.13676,18.94126 -66.8934,37.36652 -127.72029,37.77946 -65.49899,0.44463 -123.190151,-18.07231 -121.840321,-36.94841 1.24155,-17.36157 21.315563,-27.250893 53.242851,-36.081622 z"
         id="path32" /><g
         id="g33"
         transform="matrix(2.1979024,0,0,2.1979024,22.883981,11.12075)"><circle
           style="fill:#059669;fill-opacity:1;stroke:none;stroke-width:4.09242;stroke-linecap:square;stroke-linejoin:round;stroke-dasharray:none"
           id="circle32"
           cx="39.480614"
           cy="63.801273"
           r="6.4008355" /><path
           style="font-size:10.5833px;line-height:1;font-family:'Libertinus Sans';-inkscape-font-specification:'Libertinus Sans';text-align:center;text-anchor:middle;fill:#ecfdf5;stroke-width:2.3828;stroke-linecap:square;stroke-linejoin:round"
           d="m 41.269191,64.970725 c -0.370415,0.402165 -0.86783,0.582082 -1.449912,0.582082 -0.359832,0 -0.857247,-0.137583 -1.153579,-0.603249 -0.1905,-0.296332 -0.254,-0.730247 -0.254,-1.344079 h 2.878658 c 0.116416,0 0.190499,-0.0635 0.190499,-0.179916 0,-0.888997 -0.433915,-2.000243 -1.83091,-2.000243 -1.09008,0 -2.169577,0.878414 -2.169577,2.434159 0,0.603248 0.127,1.195912 0.476249,1.619244 0.359832,0.433916 0.973663,0.698498 1.682744,0.698498 0.761998,0 1.439329,-0.391582 1.841494,-0.941913 z M 38.44345,63.182147 c 0.179916,-1.100663 0.878414,-1.333495 1.206497,-1.333495 0.423332,0 0.888997,0.391582 0.888997,1.185329 0,0.09525 -0.04233,0.148166 -0.148166,0.148166 z"
           id="path33"
           aria-label="e" /></g><g
         id="g34"
         transform="matrix(2.7305827,0,0,2.7305827,134.44184,-10.039391)"><circle
           style="fill:#059669;fill-opacity:1;stroke:none;stroke-width:4.09242;stroke-linecap:square;stroke-linejoin:round;stroke-dasharray:none"
           id="circle33"
           cx="39.480614"
           cy="63.801273"
           r="6.4008355" /><path
           style="font-size:10.5833px;line-height:1;font-family:'Libertinus Sans';-inkscape-font-specification:'Libertinus Sans';text-align:center;text-anchor:middle;fill:#ecfdf5;stroke-width:2.3828;stroke-linecap:square;stroke-linejoin:round"
           d="m 41.269191,64.970725 c -0.370415,0.402165 -0.86783,0.582082 -1.449912,0.582082 -0.359832,0 -0.857247,-0.137583 -1.153579,-0.603249 -0.1905,-0.296332 -0.254,-0.730247 -0.254,-1.344079 h 2.878658 c 0.116416,0 0.190499,-0.0635 0.190499,-0.179916 0,-0.888997 -0.433915,-2.000243 -1.83091,-2.000243 -1.09008,0 -2.169577,0.878414 -2.169577,2.434159 0,0.603248 0.127,1.195912 0.476249,1.619244 0.359832,0.433916 0.973663,0.698498 1.682744,0.698498 0.761998,0 1.439329,-0.391582 1.841494,-0.941913 z M 38.44345,63.182147 c 0.179916,-1.100663 0.878414,-1.333495 1.206497,-1.333495 0.423332,0 0.888997,0.391582 0.888997,1.185329 0,0.09525 -0.04233,0.148166 -0.148166,0.148166 z"
           id="path34"
           aria-label="e" /></g><g
         id="g35"
         transform="matrix(1.4322921,0,0,1.4322921,259.46464,9.8324336)"><circle
           style="fill:#059669;fill-opacity:1;stroke:none;stroke-width:4.09242;stroke-linecap:square;stroke-linejoin:round;stroke-dasharray:none"
           id="circle34"
           cx="39.480614"
           cy="63.801273"
           r="6.4008355" /><path
           style="font-size:10.5833px;line-height:1;font-family:'Libertinus Sans';-inkscape-font-specification:'Libertinus Sans';text-align:center;text-anchor:middle;fill:#ecfdf5;stroke-width:2.3828;stroke-linecap:square;stroke-linejoin:round"
           d="m 41.269191,64.970725 c -0.370415,0.402165 -0.86783,0.582082 -1.449912,0.582082 -0.359832,0 -0.857247,-0.137583 -1.153579,-0.603249 -0.1905,-0.296332 -0.254,-0.730247 -0.254,-1.344079 h 2.878658 c 0.116416,0 0.190499,-0.0635 0.190499,-0.179916 0,-0.888997 -0.433915,-2.000243 -1.83091,-2.000243 -1.09008,0 -2.169577,0.878414 -2.169577,2.434159 0,0.603248 0.127,1.195912 0.476249,1.619244 0.359832,0.433916 0.973663,0.698498 1.682744,0.698498 0.761998,0 1.439329,-0.391582 1.841494,-0.941913 z M 38.44345,63.182147 c 0.179916,-1.100663 0.878414,-1.333495 1.206497,-1.333495 0.423332,0 0.888997,0.391582 0.888997,1.185329 0,0.09525 -0.04233,0.148166 -0.148166,0.148166 z"
           id="path35"
           aria-label="e" /></g></g></g></svg>
